%TF.GenerationSoftware,Altium Limited,Altium Designer,22.11.1 (43)*%
G04 Layer_Physical_Order=2*
G04 Layer_Color=16711680*
%FSLAX45Y45*%
%MOMM*%
%TF.SameCoordinates,EF016C58-0A76-43AB-9C1A-79AB2C169C99*%
%TF.FilePolarity,Positive*%
%TF.FileFunction,Copper,L2,Bot,Signal*%
%TF.Part,Single*%
G01*
G75*
%TA.AperFunction,ViaPad*%
%ADD16C,0.70000*%
G36*
X2575000Y25000D02*
X25000D01*
Y975000D01*
X2575000D01*
Y25000D01*
D02*
G37*
%LPC*%
G36*
X2287700Y585116D02*
Y537700D01*
X2335116D01*
X2326205Y559214D01*
X2309214Y576205D01*
X2287700Y585116D01*
D02*
G37*
G36*
X2262300D02*
X2240786Y576205D01*
X2223795Y559214D01*
X2214884Y537700D01*
X2262300D01*
Y585116D01*
D02*
G37*
G36*
X1087700Y560116D02*
Y512700D01*
X1135116D01*
X1126205Y534214D01*
X1109214Y551205D01*
X1087700Y560116D01*
D02*
G37*
G36*
X1062300D02*
X1040786Y551205D01*
X1023795Y534214D01*
X1014884Y512700D01*
X1062300D01*
Y560116D01*
D02*
G37*
G36*
X362700Y535116D02*
Y487700D01*
X410116D01*
X401205Y509214D01*
X384214Y526205D01*
X362700Y535116D01*
D02*
G37*
G36*
X337300D02*
X315786Y526205D01*
X298795Y509214D01*
X289884Y487700D01*
X337300D01*
Y535116D01*
D02*
G37*
G36*
X2335116Y512300D02*
X2287700D01*
Y464884D01*
X2309214Y473795D01*
X2326205Y490786D01*
X2335116Y512300D01*
D02*
G37*
G36*
X2262300D02*
X2214884D01*
X2223795Y490786D01*
X2240786Y473795D01*
X2262300Y464884D01*
Y512300D01*
D02*
G37*
G36*
X1135116Y487300D02*
X1087700D01*
Y439884D01*
X1109214Y448795D01*
X1126205Y465786D01*
X1135116Y487300D01*
D02*
G37*
G36*
X1062300D02*
X1014884D01*
X1023795Y465786D01*
X1040786Y448795D01*
X1062300Y439884D01*
Y487300D01*
D02*
G37*
G36*
X410116Y462300D02*
X362700D01*
Y414884D01*
X384214Y423795D01*
X401205Y440786D01*
X410116Y462300D01*
D02*
G37*
G36*
X337300D02*
X289884D01*
X298795Y440786D01*
X315786Y423795D01*
X337300Y414884D01*
Y462300D01*
D02*
G37*
G36*
X1712700Y310116D02*
Y262700D01*
X1760116D01*
X1751205Y284214D01*
X1734214Y301205D01*
X1712700Y310116D01*
D02*
G37*
G36*
X1687300D02*
X1665786Y301205D01*
X1648795Y284214D01*
X1639884Y262700D01*
X1687300D01*
Y310116D01*
D02*
G37*
G36*
X937700D02*
Y262700D01*
X985116D01*
X976205Y284214D01*
X959214Y301205D01*
X937700Y310116D01*
D02*
G37*
G36*
X912300D02*
X890786Y301205D01*
X873795Y284214D01*
X864884Y262700D01*
X912300D01*
Y310116D01*
D02*
G37*
G36*
X1760116Y237300D02*
X1712700D01*
Y189884D01*
X1734214Y198795D01*
X1751205Y215786D01*
X1760116Y237300D01*
D02*
G37*
G36*
X1687300D02*
X1639884D01*
X1648795Y215786D01*
X1665786Y198795D01*
X1687300Y189884D01*
Y237300D01*
D02*
G37*
G36*
X985116D02*
X937700D01*
Y189884D01*
X959214Y198795D01*
X976205Y215786D01*
X985116Y237300D01*
D02*
G37*
G36*
X912300D02*
X864884D01*
X873795Y215786D01*
X890786Y198795D01*
X912300Y189884D01*
Y237300D01*
D02*
G37*
%LPD*%
D16*
X925000Y250000D02*
D03*
X1075000Y500000D02*
D03*
X1700000Y250000D02*
D03*
X350000Y475000D02*
D03*
X2275000Y525000D02*
D03*
%TF.MD5,532085fbf61bed8d92626552d23f9f99*%
M02*
