%TF.GenerationSoftware,Altium Limited,Altium Designer,22.11.1 (43)*%
G04 Layer_Physical_Order=1*
G04 Layer_Color=255*
%FSLAX45Y45*%
%MOMM*%
%TF.SameCoordinates,EF016C58-0A76-43AB-9C1A-79AB2C169C99*%
%TF.FilePolarity,Positive*%
%TF.FileFunction,Copper,L1,Top,Signal*%
%TF.Part,Single*%
G01*
G75*
%TA.AperFunction,SMDPad,CuDef*%
%ADD10R,1.50822X1.40574*%
%ADD11R,2.70000X1.00000*%
%ADD12R,1.70000X0.60000*%
%ADD13R,1.00000X0.66000*%
%TA.AperFunction,Conductor*%
%ADD14C,0.50000*%
%ADD15C,0.30000*%
%TA.AperFunction,ViaPad*%
%ADD16C,0.70000*%
D10*
X900000Y592624D02*
D03*
Y407376D02*
D03*
X1700000Y592624D02*
D03*
Y407376D02*
D03*
D11*
X2392500Y252500D02*
D03*
Y747500D02*
D03*
X207500D02*
D03*
Y252500D02*
D03*
D12*
X2072500Y437500D02*
D03*
Y562500D02*
D03*
X527500D02*
D03*
Y437500D02*
D03*
D13*
X1170000Y595000D02*
D03*
Y500000D02*
D03*
Y405000D02*
D03*
X1430000D02*
D03*
Y595000D02*
D03*
D14*
X1075000Y500000D02*
X1170000D01*
X900000Y275000D02*
Y407376D01*
Y275000D02*
X925000Y250000D01*
X350000Y475000D02*
X387500Y437500D01*
X527500D01*
X1700000Y250000D02*
Y407376D01*
X2216664Y562500D02*
X2254164Y525000D01*
X2072500Y562500D02*
X2216664D01*
X2254164Y525000D02*
X2275000D01*
X1170000Y405000D02*
X1255000D01*
X1300000Y450000D01*
Y550000D01*
X1170000Y595000D02*
X1255000D01*
X1300000Y550000D01*
X1930074Y437500D02*
X2072500D01*
X1900000Y467574D02*
X1930074Y437500D01*
X1900000Y467574D02*
Y550000D01*
X1700000Y592624D02*
X1857376D01*
X1900000Y550000D01*
X1697624Y595000D02*
X1700000Y592624D01*
X1430000Y595000D02*
X1697624D01*
X902376D02*
X1170000D01*
X900000Y592624D02*
X902376Y595000D01*
X750000Y600000D02*
X892624D01*
X900000Y592624D01*
X527500Y562500D02*
X712500D01*
X750000Y600000D01*
D15*
X892624Y400000D02*
X900000Y407376D01*
D16*
X925000Y250000D02*
D03*
X1075000Y500000D02*
D03*
X1700000Y250000D02*
D03*
X350000Y475000D02*
D03*
X2275000Y525000D02*
D03*
%TF.MD5,7fc18c541f97ee8b55939209905bfe72*%
M02*
