%TF.GenerationSoftware,Altium Limited,Altium Designer,22.11.1 (43)*%
G04 Layer_Color=8388736*
%FSLAX45Y45*%
%MOMM*%
%TF.SameCoordinates,EF016C58-0A76-43AB-9C1A-79AB2C169C99*%
%TF.FilePolarity,Negative*%
%TF.FileFunction,Soldermask,Top*%
%TF.Part,Single*%
G01*
G75*
%TA.AperFunction,SMDPad,CuDef*%
%ADD10R,1.50822X1.40574*%
%ADD11R,2.70000X1.00000*%
%ADD12R,1.70000X0.60000*%
%ADD13R,1.00000X0.66000*%
%TA.AperFunction,ViaPad*%
%ADD20C,0.90320*%
D10*
X900000Y592624D02*
D03*
Y407376D02*
D03*
X1700000Y592624D02*
D03*
Y407376D02*
D03*
D11*
X2392500Y252500D02*
D03*
Y747500D02*
D03*
X207500D02*
D03*
Y252500D02*
D03*
D12*
X2072500Y437500D02*
D03*
Y562500D02*
D03*
X527500D02*
D03*
Y437500D02*
D03*
D13*
X1170000Y595000D02*
D03*
Y500000D02*
D03*
Y405000D02*
D03*
X1430000D02*
D03*
Y595000D02*
D03*
D20*
X925000Y250000D02*
D03*
X1075000Y500000D02*
D03*
X1700000Y250000D02*
D03*
X350000Y475000D02*
D03*
X2275000Y525000D02*
D03*
%TF.MD5,500ebdc7e4bb18843a4237d8aecb91e8*%
M02*
