%TF.GenerationSoftware,Altium Limited,Altium Designer,22.11.1 (43)*%
G04 Layer_Color=65535*
%FSLAX45Y45*%
%MOMM*%
%TF.SameCoordinates,EF016C58-0A76-43AB-9C1A-79AB2C169C99*%
%TF.FilePolarity,Positive*%
%TF.FileFunction,Legend,Top*%
%TF.Part,Single*%
G01*
G75*
%TA.AperFunction,NonConductor*%
%ADD17C,0.25000*%
%ADD18C,0.20000*%
%ADD19C,0.25400*%
D17*
X1942500Y437500D02*
G03*
X1942500Y437500I-12500J0D01*
G01*
X682500Y562500D02*
G03*
X682500Y562500I-12500J0D01*
G01*
X1077500Y595000D02*
G03*
X1077500Y595000I-12500J0D01*
G01*
D18*
X784589Y337089D02*
Y662911D01*
X1015411Y337089D02*
Y662911D01*
X2097500Y212500D02*
Y370000D01*
Y630000D02*
Y787500D01*
X2220000D01*
X2502500Y340000D02*
Y660000D01*
X2097500Y212500D02*
X2220000D01*
X502500Y630000D02*
Y787500D01*
Y212500D02*
Y370000D01*
X380000Y212500D02*
X502500D01*
X97500Y340000D02*
Y660000D01*
X380000Y787500D02*
X502500D01*
X1265000Y650000D02*
X1335000D01*
Y350000D02*
Y650000D01*
X1265000Y350000D02*
X1335000D01*
X1265000D02*
Y650000D01*
X1584589Y337089D02*
Y662911D01*
X1815411Y337089D02*
Y662911D01*
D19*
X965100Y174600D02*
Y154607D01*
X1005087Y114620D01*
X1045075Y154607D01*
Y174600D01*
X1005087Y114620D02*
Y54639D01*
X1105055D02*
X1145042D01*
X1165036Y74633D01*
Y114620D01*
X1145042Y134613D01*
X1105055D01*
X1085062Y114620D01*
Y74633D01*
X1105055Y54639D01*
X1205023Y134613D02*
Y74633D01*
X1225016Y54639D01*
X1284997D01*
Y134613D01*
X1324984Y54639D02*
X1384964D01*
X1404958Y74633D01*
X1384964Y94626D01*
X1344977D01*
X1324984Y114620D01*
X1344977Y134613D01*
X1404958D01*
X1444945Y54639D02*
X1484932D01*
X1464939D01*
Y134613D01*
X1444945D01*
X1564906Y54639D02*
Y154607D01*
Y114620D01*
X1544913D01*
X1584900D01*
X1564906D01*
Y154607D01*
X1584900Y174600D01*
X700000Y226175D02*
X649217D01*
X674609D01*
Y99216D01*
X649217Y73825D01*
X623825D01*
X598433Y99216D01*
X750784Y73825D02*
X801567D01*
X776176D01*
Y226175D01*
X750784Y200783D01*
X1849608Y226175D02*
X1798825D01*
X1824217D01*
Y99216D01*
X1798825Y73825D01*
X1773433D01*
X1748041Y99216D01*
X2001959Y73825D02*
X1900392D01*
X2001959Y175392D01*
Y200783D01*
X1976567Y226175D01*
X1925784D01*
X1900392Y200783D01*
X1198433Y926175D02*
Y799216D01*
X1223825Y773824D01*
X1274608D01*
X1300000Y799216D01*
Y926175D01*
X1350784Y773824D02*
X1401567D01*
X1376176D01*
Y926175D01*
X1350784Y900783D01*
X1674608D02*
X1649216Y926175D01*
X1598433D01*
X1573041Y900783D01*
Y799216D01*
X1598433Y773824D01*
X1649216D01*
X1674608Y799216D01*
X1826959Y773824D02*
X1725392D01*
X1826959Y875392D01*
Y900783D01*
X1801567Y926175D01*
X1750784D01*
X1725392Y900783D01*
X900000D02*
X874608Y926175D01*
X823825D01*
X798433Y900783D01*
Y799216D01*
X823825Y773824D01*
X874608D01*
X900000Y799216D01*
X950784Y773824D02*
X1001567D01*
X976176D01*
Y926175D01*
X950784Y900783D01*
%TF.MD5,a3357e9c02ae2ec15de32dd5b9b2fa17*%
M02*
